<?xml version="1.0" encoding="utf-8"?>
<!-- Generator: Adobe Illustrator 26.5.0, SVG Export Plug-In . SVG Version: 6.00 Build 0)  -->
<svg version="1.1" id="Layer_1" xmlns="http://www.w3.org/2000/svg" xmlns:xlink="http://www.w3.org/1999/xlink" x="0px" y="0px"
	 viewBox="0 0 195.97 41" style="enable-background:new 0 0 195.97 41;" xml:space="preserve">
<style type="text/css">
	.st0{fill:#2D2D2D;}
	.st1{fill:#2A1D8A;}
	.st2{fill:#5167EB;}
</style>
<g>
	<g>
		<path class="st0" d="M56.25,26.35V10.72h1.89v13.95h7.28v1.68H56.25z"/>
		<path class="st0" d="M67.99,12.67c-0.35,0-0.65-0.12-0.9-0.36s-0.38-0.52-0.38-0.86c0-0.34,0.13-0.62,0.38-0.86
			s0.55-0.36,0.9-0.36s0.65,0.12,0.9,0.36c0.25,0.24,0.38,0.52,0.38,0.86c0,0.34-0.13,0.62-0.38,0.86
			C68.64,12.55,68.34,12.67,67.99,12.67z M67.09,26.35V14.62h1.78v11.73H67.09z"/>
		<path class="st0" d="M76.53,26.6c-0.75,0-1.35-0.13-1.8-0.38c-0.45-0.25-0.8-0.55-1.05-0.87c-0.25-0.33-0.43-0.59-0.57-0.8H72.9
			v1.8h-1.72V10.72h1.78v5.77h0.15c0.13-0.2,0.32-0.46,0.56-0.78s0.58-0.6,1.03-0.85c0.45-0.25,1.05-0.38,1.81-0.38
			c0.99,0,1.85,0.25,2.6,0.74c0.75,0.49,1.33,1.19,1.76,2.1c0.42,0.91,0.63,1.97,0.63,3.2c0,1.24-0.21,2.31-0.63,3.23
			s-1,1.62-1.75,2.11C78.37,26.35,77.51,26.6,76.53,26.6z M76.3,24.98c0.75,0,1.37-0.2,1.88-0.6c0.5-0.4,0.88-0.94,1.14-1.62
			c0.26-0.68,0.38-1.43,0.38-2.27c0-0.82-0.13-1.57-0.38-2.23c-0.25-0.66-0.63-1.19-1.13-1.58s-1.13-0.59-1.89-0.59
			c-0.73,0-1.35,0.18-1.85,0.55s-0.87,0.88-1.13,1.54c-0.26,0.66-0.38,1.43-0.38,2.31c0,0.88,0.13,1.66,0.39,2.33
			c0.26,0.67,0.64,1.2,1.14,1.58C74.97,24.79,75.58,24.98,76.3,24.98z"/>
		<path class="st0" d="M88.15,26.6c-1.13,0-2.1-0.25-2.92-0.76c-0.82-0.5-1.45-1.21-1.89-2.11c-0.44-0.91-0.66-1.96-0.66-3.15
			c0-1.2,0.22-2.26,0.65-3.18s1.04-1.63,1.83-2.15c0.79-0.52,1.71-0.78,2.76-0.78c0.61,0,1.21,0.1,1.81,0.3s1.15,0.53,1.64,0.99
			s0.89,1.06,1.18,1.8c0.29,0.75,0.44,1.67,0.44,2.76v0.78h-9.04v-1.55h8.07l-0.83,0.59c0-0.78-0.12-1.48-0.37-2.09
			s-0.61-1.09-1.1-1.44c-0.49-0.35-1.09-0.52-1.81-0.52s-1.34,0.18-1.85,0.53c-0.51,0.35-0.91,0.81-1.18,1.38
			c-0.27,0.57-0.41,1.17-0.41,1.82v1.03c0,0.89,0.15,1.64,0.46,2.25c0.31,0.62,0.74,1.08,1.29,1.4s1.19,0.48,1.92,0.48
			c0.47,0,0.9-0.07,1.28-0.2c0.38-0.14,0.72-0.34,1-0.62c0.28-0.28,0.49-0.62,0.64-1.02l1.74,0.5c-0.18,0.59-0.49,1.1-0.92,1.55
			c-0.43,0.44-0.96,0.79-1.6,1.04C89.66,26.48,88.94,26.6,88.15,26.6z"/>
		<path class="st0" d="M94.7,26.35V14.62h1.72v1.78h0.13c0.22-0.58,0.61-1.05,1.17-1.41c0.56-0.36,1.19-0.54,1.89-0.54
			c0.13,0,0.3,0,0.49,0.01s0.35,0.01,0.45,0.02v1.83c-0.06-0.01-0.2-0.04-0.42-0.06s-0.45-0.04-0.69-0.04
			c-0.57,0-1.07,0.12-1.52,0.36c-0.45,0.24-0.8,0.56-1.05,0.98s-0.38,0.88-0.38,1.42v7.41H94.7z"/>
		<path class="st0" d="M107.48,14.62v1.53h-6.06v-1.53H107.48z M103.18,11.83h1.78v11.16c0,0.61,0.13,1.05,0.38,1.34
			c0.25,0.28,0.65,0.42,1.2,0.42c0.12,0,0.24-0.01,0.37-0.02s0.27-0.04,0.42-0.06l0.38,1.62c-0.17,0.06-0.37,0.11-0.61,0.15
			c-0.24,0.04-0.48,0.06-0.73,0.06c-0.94,0-1.71-0.28-2.3-0.84c-0.59-0.56-0.89-1.29-0.89-2.18V11.83z"/>
		<path class="st0" d="M110.36,30.73c-0.31,0.01-0.58-0.01-0.82-0.06s-0.41-0.1-0.5-0.15l0.46-1.57l0.18,0.04
			c0.6,0.14,1.11,0.11,1.52-0.09s0.77-0.72,1.08-1.57l0.34-0.92l-4.32-11.79h1.95l3.23,9.36h0.13l3.23-9.36h1.95l-4.97,13.43
			c-0.22,0.61-0.5,1.11-0.83,1.51c-0.33,0.4-0.71,0.69-1.14,0.89C111.39,30.64,110.9,30.73,110.36,30.73z"/>
		<path class="st0" d="M125.42,26.35V10.72h9.38v1.68h-7.49v5.45h6.78v1.68h-6.78v6.82H125.42z"/>
		<path class="st0" d="M137.69,12.67c-0.35,0-0.65-0.12-0.9-0.36s-0.38-0.52-0.38-0.86c0-0.34,0.13-0.62,0.38-0.86
			s0.55-0.36,0.9-0.36s0.65,0.12,0.9,0.36c0.25,0.24,0.38,0.52,0.38,0.86c0,0.34-0.13,0.62-0.38,0.86
			C138.34,12.55,138.04,12.67,137.69,12.67z M136.79,26.35V14.62h1.78v11.73H136.79z"/>
		<path class="st0" d="M142.66,19.3v7.05h-1.78V14.62h1.72v1.85h0.17c0.27-0.6,0.69-1.08,1.25-1.45s1.28-0.55,2.17-0.55
			c0.79,0,1.48,0.16,2.08,0.48s1.06,0.81,1.39,1.46s0.5,1.48,0.5,2.48v7.45h-1.78v-7.32c0-0.92-0.24-1.63-0.72-2.16
			c-0.48-0.52-1.14-0.78-1.97-0.78c-0.57,0-1.09,0.13-1.54,0.38c-0.45,0.25-0.81,0.62-1.08,1.09
			C142.79,18.03,142.66,18.61,142.66,19.3z"/>
		<path class="st0" d="M155.9,26.62c-0.74,0-1.42-0.14-2.02-0.42s-1.09-0.69-1.45-1.23c-0.36-0.54-0.54-1.19-0.54-1.95
			c0-0.67,0.13-1.21,0.4-1.63c0.27-0.42,0.62-0.74,1.06-0.99c0.44-0.24,0.93-0.42,1.47-0.54c0.54-0.12,1.08-0.21,1.62-0.28
			c0.71-0.09,1.29-0.16,1.74-0.21c0.44-0.05,0.77-0.13,0.98-0.25c0.21-0.12,0.31-0.32,0.31-0.61v-0.06c0-0.75-0.2-1.33-0.61-1.75
			s-1.03-0.62-1.86-0.62c-0.85,0-1.52,0.19-2.01,0.56c-0.49,0.37-0.83,0.77-1.03,1.2l-1.72-0.61c0.31-0.71,0.72-1.27,1.23-1.67
			c0.51-0.4,1.07-0.68,1.68-0.84c0.6-0.16,1.2-0.24,1.79-0.24c0.38,0,0.81,0.04,1.3,0.13c0.49,0.09,0.97,0.27,1.43,0.55
			c0.46,0.28,0.85,0.69,1.15,1.25c0.3,0.56,0.46,1.3,0.46,2.23v7.72h-1.8v-1.59h-0.08c-0.12,0.25-0.32,0.52-0.61,0.81
			s-0.67,0.54-1.14,0.74S156.59,26.62,155.9,26.62z M156.17,25c0.71,0,1.31-0.14,1.8-0.42c0.49-0.28,0.86-0.64,1.11-1.09
			c0.25-0.44,0.38-0.91,0.38-1.39v-1.66c-0.08,0.09-0.24,0.17-0.5,0.25c-0.26,0.07-0.55,0.14-0.88,0.19
			c-0.33,0.06-0.66,0.1-0.97,0.14c-0.31,0.04-0.57,0.07-0.76,0.09c-0.47,0.06-0.91,0.16-1.31,0.3c-0.41,0.14-0.73,0.34-0.98,0.6
			c-0.25,0.27-0.37,0.63-0.37,1.09c0,0.62,0.23,1.09,0.7,1.41C154.86,24.85,155.45,25,156.17,25z"/>
		<path class="st0" d="M165.36,19.3v7.05h-1.78V14.62h1.72v1.85h0.17c0.27-0.6,0.69-1.08,1.25-1.45s1.28-0.55,2.17-0.55
			c0.79,0,1.48,0.16,2.08,0.48s1.06,0.81,1.39,1.46s0.5,1.48,0.5,2.48v7.45h-1.78v-7.32c0-0.92-0.24-1.63-0.72-2.16
			c-0.48-0.52-1.14-0.78-1.97-0.78c-0.57,0-1.09,0.13-1.54,0.38c-0.45,0.25-0.81,0.62-1.08,1.09
			C165.49,18.03,165.36,18.61,165.36,19.3z"/>
		<path class="st0" d="M179.9,26.6c-1.09,0-2.03-0.26-2.83-0.78c-0.79-0.52-1.41-1.24-1.84-2.15c-0.43-0.91-0.65-1.95-0.65-3.12
			c0-1.2,0.22-2.25,0.66-3.16c0.44-0.91,1.06-1.63,1.85-2.15c0.79-0.52,1.72-0.78,2.77-0.78c0.82,0,1.57,0.15,2.23,0.46
			c0.66,0.3,1.2,0.73,1.63,1.29s0.68,1.2,0.78,1.93h-1.8c-0.09-0.36-0.26-0.69-0.49-1.01c-0.24-0.31-0.55-0.57-0.94-0.76
			c-0.39-0.19-0.85-0.29-1.38-0.29c-0.7,0-1.31,0.18-1.84,0.55c-0.52,0.36-0.93,0.88-1.23,1.54c-0.29,0.66-0.44,1.44-0.44,2.32
			c0,0.9,0.14,1.69,0.43,2.37c0.29,0.68,0.69,1.2,1.22,1.57s1.15,0.56,1.85,0.56c0.71,0,1.31-0.18,1.81-0.55
			c0.5-0.37,0.84-0.87,1-1.51h1.8c-0.1,0.69-0.35,1.31-0.75,1.87c-0.4,0.55-0.93,0.99-1.58,1.32S180.77,26.6,179.9,26.6z"/>
		<path class="st0" d="M191.12,26.6c-1.13,0-2.1-0.25-2.92-0.76c-0.82-0.5-1.45-1.21-1.89-2.11c-0.44-0.91-0.66-1.96-0.66-3.15
			c0-1.2,0.22-2.26,0.65-3.18s1.04-1.63,1.83-2.15c0.79-0.52,1.71-0.78,2.76-0.78c0.61,0,1.21,0.1,1.81,0.3s1.15,0.53,1.64,0.99
			s0.89,1.06,1.18,1.8c0.29,0.75,0.44,1.67,0.44,2.76v0.78h-9.04v-1.55h8.07l-0.83,0.59c0-0.78-0.12-1.48-0.37-2.09
			s-0.61-1.09-1.1-1.44c-0.49-0.35-1.09-0.52-1.81-0.52s-1.34,0.18-1.85,0.53c-0.51,0.35-0.91,0.81-1.18,1.38
			c-0.27,0.57-0.41,1.17-0.41,1.82v1.03c0,0.89,0.15,1.64,0.46,2.25c0.31,0.62,0.74,1.08,1.29,1.4s1.19,0.48,1.92,0.48
			c0.47,0,0.9-0.07,1.28-0.2c0.38-0.14,0.72-0.34,1-0.62c0.28-0.28,0.49-0.62,0.64-1.02l1.74,0.5c-0.18,0.59-0.49,1.1-0.92,1.55
			c-0.43,0.44-0.96,0.79-1.6,1.04C192.63,26.48,191.91,26.6,191.12,26.6z"/>
	</g>
</g>
<g>
	<path class="st1" d="M12.69,0.74L0,13.75l6.71,6.87L25.2,1.68C25.81,1.05,25.37,0,24.49,0H14.46C13.8,0,13.16,0.27,12.69,0.74z"/>
	<path class="st2" d="M15.62,32.13l-4.28,4.12c-0.66,0.64-1.72,0.63-2.37-0.01l-8.23-8.09C0.27,27.68,0,27.04,0,26.37V13.75
		l15.65,15.8C16.36,30.27,16.35,31.43,15.62,32.13z"/>
	<path class="st2" d="M40.67,13.75l-8.96,9.4c-0.6,0.63-1.61,0.64-2.23,0.02l-8.24-8.3c-0.61-0.62-1.61-0.61-2.21,0.01l-4.53,4.64
		c-0.6,0.61-0.59,1.59,0.02,2.19l8.01,7.89c0.61,0.6,0.62,1.59,0.01,2.2l-6.5,6.56c-0.97,0.98-0.28,2.65,1.1,2.65h9.25
		c0.41,0,0.81-0.16,1.1-0.46l12.72-12.72c0.29-0.29,0.46-0.69,0.46-1.1V13.75z"/>
	<path class="st1" d="M24.94,9.16l4.51-4.3c0.64-0.61,1.65-0.6,2.28,0.02l8.93,8.86l-6.68,7l-9.1-9.25
		C24.26,10.85,24.28,9.79,24.94,9.16z"/>
</g>
</svg>
